# xmcd CD database file
#
# Track frame offsets:
#	150
#	20853
#	38833
#
# Disc length: 643 seconds
#
# Revision: 0
# Processed by: cddbd v1.5.1PL0 Copyright (c) Steve Scherf et al.
# Submitted via: CDex 1.51
#
DISCID=20028103
DTITLE=L−R - 君と夏と僕のブルージーン
DYEAR=1993
DGENRE=JPop
TTITLE0=君と夏と僕のブルージーン
TTITLE1=AMERICAN DREAM
TTITLE2=BOTH SIDES NOW
EXTD=YEAR: 1993
EXTT0=
EXTT1=
EXTT2=
PLAYORDER=
